<svg id="svg" version="1.1" xmlns="http://www.w3.org/2000/svg" xmlns:xlink="http://www.w3.org/1999/xlink" width="400" height="400" viewBox="0, 0, 400,400"><g id="svgg"><path id="path0" d="M313.719 53.347 C 310.861 62.615,305.509 69.899,297.300 75.693 C 296.212 76.462,290.340 79.800,290.078 79.800 C 290.043 79.800,289.359 80.106,288.558 80.480 C 285.298 82.001,282.210 83.258,277.200 85.102 C 276.485 85.365,274.910 85.949,273.700 86.400 C 272.490 86.851,270.780 87.480,269.900 87.798 C 269.020 88.116,267.445 88.702,266.400 89.099 C 265.355 89.497,264.050 89.988,263.500 90.190 C 260.486 91.299,255.480 93.374,251.836 95.027 C 251.141 95.342,250.532 95.600,250.482 95.600 C 250.210 95.600,241.768 99.880,239.910 100.961 C 219.277 112.954,207.619 134.150,205.782 163.011 C 205.371 169.463,205.838 184.721,206.503 186.564 C 206.566 186.738,207.197 186.325,208.349 185.356 C 209.312 184.546,210.380 183.662,210.723 183.392 C 211.065 183.121,212.460 181.987,213.823 180.872 C 231.285 166.574,246.533 157.772,258.779 154.920 C 260.274 154.572,260.290 154.550,257.700 156.310 C 255.160 158.036,251.006 161.370,249.384 162.986 C 249.099 163.269,248.473 163.815,247.990 164.200 C 228.415 179.833,209.910 204.601,199.520 229.075 C 197.465 233.915,195.400 239.197,195.400 239.612 C 195.400 240.045,194.922 239.665,194.740 239.088 C 194.511 238.362,193.084 234.717,192.710 233.900 C 189.762 227.468,187.270 223.061,183.381 217.399 C 178.318 210.028,170.388 201.832,162.100 195.403 C 158.479 192.595,158.792 192.590,163.000 195.390 C 171.952 201.347,181.721 208.689,187.589 213.872 C 188.409 214.596,189.109 215.157,189.147 215.120 C 189.859 214.407,190.826 207.925,190.825 203.869 C 190.823 195.299,188.693 188.676,183.357 180.647 C 179.007 174.102,170.106 167.094,161.000 163.044 C 138.069 152.845,111.535 153.399,93.700 164.448 C 88.199 167.856,85.280 170.091,80.085 174.876 L 77.670 177.100 78.985 177.245 C 89.088 178.361,94.510 181.417,101.614 190.000 C 102.595 191.186,103.532 192.454,109.449 200.606 C 122.043 217.960,129.906 224.884,141.200 228.568 C 151.114 231.802,162.387 231.217,173.950 226.869 C 176.801 225.797,176.670 226.101,175.612 223.000 C 171.658 211.419,166.000 200.972,160.406 194.920 C 157.726 192.020,163.136 196.679,167.100 200.684 C 180.546 214.268,189.195 231.311,191.508 248.778 L 191.789 250.900 191.017 253.900 C 188.389 264.115,185.701 280.600,186.664 280.600 C 188.302 280.600,197.020 282.183,197.861 282.632 C 198.074 282.747,198.197 282.756,198.133 282.654 C 197.981 282.408,198.341 271.411,198.610 268.100 C 199.420 258.117,201.728 245.709,204.488 236.500 C 205.324 233.710,207.384 227.434,207.902 226.100 C 209.520 221.926,210.285 220.001,210.610 219.284 C 210.813 218.835,211.158 218.013,211.377 217.457 C 212.923 213.536,220.336 199.300,220.833 199.300 C 220.881 199.300,221.965 199.867,223.242 200.560 C 243.125 211.353,267.580 207.729,287.600 191.022 C 298.268 182.119,307.561 170.328,315.492 155.630 C 330.283 128.223,333.268 97.604,323.598 72.500 C 321.006 65.773,320.557 64.763,317.144 58.000 C 313.872 51.514,314.163 51.910,313.719 53.347 M127.755 344.547 C 128.226 344.589,128.946 344.588,129.355 344.545 C 129.765 344.502,129.380 344.468,128.500 344.469 C 127.620 344.469,127.285 344.504,127.755 344.547 M197.441 344.548 C 198.179 344.586,199.439 344.587,200.241 344.549 C 201.044 344.511,200.440 344.479,198.900 344.479 C 197.360 344.479,196.704 344.510,197.441 344.548 " stroke="none" fill="#89d127" fill-rule="evenodd"></path><path id="path1" d="M173.500 280.609 C 165.141 281.379,157.765 284.227,153.450 288.352 L 152.000 289.738 149.189 289.866 C 139.537 290.305,130.171 293.896,123.525 299.707 L 121.752 301.257 120.226 300.708 C 114.167 298.528,107.255 301.953,105.511 308.000 L 105.194 309.100 103.005 309.632 C 100.533 310.232,98.451 311.291,96.737 312.819 C 95.998 313.477,95.355 313.841,94.500 314.086 C 85.883 316.550,80.676 321.048,81.050 325.703 C 81.376 329.769,84.449 331.341,93.064 331.850 L 97.028 332.084 97.722 333.030 C 103.500 340.901,118.701 345.565,134.040 344.172 L 136.581 343.942 137.320 344.591 C 139.725 346.703,143.795 346.930,153.200 345.478 C 159.896 344.445,162.697 343.357,163.228 341.587 C 163.378 341.084,163.563 340.820,163.721 340.880 C 163.859 340.934,165.036 341.170,166.334 341.406 C 167.633 341.642,168.749 341.869,168.815 341.909 C 168.881 341.950,171.132 342.298,173.817 342.683 C 198.819 346.265,226.289 344.278,245.657 337.486 L 247.814 336.730 248.657 337.556 C 253.223 342.028,267.051 340.616,273.019 335.067 L 273.538 334.585 274.569 335.279 C 280.442 339.231,296.700 334.718,300.207 328.161 C 300.850 326.959,300.880 326.812,300.840 325.008 C 300.546 311.652,283.471 301.588,262.400 302.350 L 259.700 302.448 258.404 300.774 C 247.446 286.625,225.692 279.908,204.966 284.272 L 202.831 284.722 201.669 284.134 C 196.154 281.345,183.164 279.720,173.500 280.609 " stroke="none" fill="#75471c" fill-rule="evenodd"></path><path id="path2" d="M0.000 200.000 L 0.000 400.000 200.000 400.000 L 400.000 400.000 400.000 200.000 L 400.000 0.000 200.000 0.000 L 0.000 0.000 0.000 200.000 M315.510 54.300 C 318.305 59.717,321.200 65.618,321.200 65.899 C 321.200 65.948,321.422 66.474,321.693 67.067 C 322.473 68.770,324.249 73.691,325.459 77.500 C 326.213 79.873,327.320 84.409,327.806 87.116 C 328.042 88.427,328.317 89.950,328.418 90.500 C 329.569 96.786,329.609 110.955,328.495 118.000 C 326.966 127.670,325.108 134.330,321.241 144.000 C 319.770 147.678,316.142 155.123,314.224 158.400 C 311.709 162.697,311.318 163.338,309.466 166.200 C 296.010 186.996,280.234 199.764,261.300 205.183 C 251.548 207.974,238.871 207.347,229.293 203.599 C 227.271 202.808,222.600 200.550,221.651 199.905 L 220.927 199.414 220.521 200.057 C 219.117 202.277,214.176 211.724,212.758 214.900 C 212.463 215.560,211.940 216.730,211.595 217.500 C 211.250 218.270,210.783 219.395,210.557 220.000 C 210.332 220.605,210.081 221.190,210.000 221.300 C 209.919 221.410,209.694 221.995,209.499 222.600 C 209.304 223.205,208.990 224.015,208.800 224.400 C 208.610 224.785,207.989 226.495,207.420 228.200 C 206.851 229.905,206.302 231.480,206.200 231.700 C 205.831 232.496,203.850 239.462,203.100 242.600 C 202.824 243.755,202.469 245.150,202.312 245.700 C 202.154 246.250,201.877 247.555,201.695 248.600 C 201.514 249.645,201.239 250.995,201.084 251.600 C 200.929 252.205,200.574 254.275,200.296 256.200 C 200.017 258.125,199.750 259.835,199.702 260.000 C 199.364 261.164,198.447 273.111,198.263 278.738 L 198.138 282.577 198.719 282.716 C 199.038 282.793,199.390 282.917,199.500 282.993 C 199.610 283.069,200.150 283.295,200.700 283.495 C 201.250 283.696,201.954 284.037,202.263 284.253 C 202.801 284.628,202.874 284.632,203.863 284.326 C 210.059 282.412,224.111 282.302,230.800 284.115 C 235.245 285.320,236.272 285.616,237.600 286.077 C 238.425 286.364,239.370 286.727,239.700 286.883 C 240.030 287.040,241.245 287.603,242.400 288.134 C 244.464 289.083,245.209 289.487,247.800 291.068 C 251.409 293.270,256.063 297.400,258.400 300.475 L 259.700 302.186 263.000 302.072 C 283.723 301.359,301.000 311.920,301.000 325.301 C 301.000 329.047,298.133 331.995,291.782 334.779 C 290.952 335.142,289.888 335.477,286.900 336.312 C 283.127 337.367,277.791 337.137,275.137 335.805 L 273.546 335.006 272.528 335.753 C 264.909 341.346,253.309 342.192,248.252 337.523 L 247.604 336.925 246.552 337.348 C 243.806 338.451,238.780 339.965,235.319 340.731 C 234.120 340.997,233.069 341.257,232.985 341.310 C 232.823 341.409,227.198 342.418,224.100 342.902 C 223.110 343.057,220.995 343.324,219.400 343.496 C 217.805 343.668,215.780 343.893,214.900 343.997 C 207.631 344.852,189.393 344.798,181.900 343.900 C 180.580 343.742,178.150 343.468,176.500 343.291 C 174.850 343.114,172.870 342.843,172.100 342.688 C 171.330 342.534,169.395 342.188,167.800 341.918 C 166.205 341.649,164.647 341.332,164.337 341.214 C 163.526 340.906,163.400 340.942,163.400 341.485 C 163.400 343.519,159.086 345.040,150.200 346.140 C 143.314 346.993,139.409 346.590,137.169 344.797 L 136.438 344.212 134.069 344.430 C 131.076 344.706,122.299 344.517,120.100 344.130 C 108.764 342.131,99.950 337.679,97.042 332.482 C 96.920 332.264,95.991 332.154,92.992 332.004 C 83.885 331.549,80.574 329.623,80.839 324.936 C 81.068 320.877,86.549 316.047,92.800 314.397 C 94.714 313.892,95.534 313.523,96.452 312.755 C 98.617 310.945,101.027 309.738,103.391 309.280 C 104.835 309.000,105.191 308.794,105.197 308.232 C 105.199 308.085,105.467 307.388,105.794 306.682 C 108.429 300.989,114.446 298.527,120.631 300.610 C 121.308 300.838,121.915 300.950,121.981 300.859 C 122.046 300.767,122.730 300.142,123.500 299.469 C 124.889 298.255,125.684 297.662,127.800 296.260 C 129.266 295.289,134.022 292.933,135.400 292.496 C 136.005 292.304,136.590 292.078,136.700 291.995 C 137.748 291.196,145.255 289.873,149.350 289.765 L 151.801 289.700 153.289 288.265 C 159.171 282.594,170.328 279.552,182.900 280.192 C 186.323 280.366,186.200 280.391,186.200 279.522 C 186.200 279.161,186.287 278.379,186.393 277.783 C 186.499 277.188,186.727 275.440,186.900 273.900 C 187.073 272.360,187.395 270.110,187.615 268.900 C 188.938 261.650,189.677 258.158,190.852 253.600 L 191.548 250.900 191.081 247.600 C 190.823 245.785,190.433 243.580,190.213 242.700 C 189.994 241.820,189.718 240.650,189.601 240.100 C 188.691 235.820,186.030 228.785,183.246 223.300 C 179.791 216.492,175.921 210.800,170.669 204.800 C 168.991 202.883,164.387 198.252,162.215 196.296 C 161.262 195.437,161.295 195.495,163.224 198.025 C 165.410 200.892,167.425 204.107,169.350 207.800 C 170.376 209.767,170.960 211.002,172.897 215.300 C 173.715 217.116,175.508 221.918,176.034 223.700 C 176.260 224.470,176.519 225.240,176.609 225.411 C 176.917 225.999,176.832 226.043,172.100 227.735 C 162.324 231.231,151.479 231.760,142.505 229.179 C 140.968 228.736,139.618 228.302,139.505 228.213 C 139.392 228.125,138.954 227.940,138.530 227.804 C 129.246 224.812,117.721 213.630,106.200 196.438 C 97.381 183.278,88.730 177.529,77.550 177.402 C 77.085 177.396,81.158 173.422,84.000 171.108 C 84.495 170.705,85.080 170.226,85.300 170.042 C 100.198 157.637,122.092 152.567,141.900 156.936 C 142.670 157.106,144.245 157.449,145.400 157.698 C 150.663 158.832,156.996 160.969,161.940 163.279 C 171.821 167.895,179.484 174.257,184.488 182.000 C 184.808 182.495,185.275 183.215,185.526 183.600 C 188.817 188.643,191.087 196.881,191.092 203.800 C 191.095 207.574,191.010 208.274,189.985 212.923 C 189.351 215.801,189.415 215.786,187.009 213.627 C 185.882 212.616,184.632 211.544,184.231 211.245 C 183.831 210.945,182.602 209.973,181.501 209.084 C 177.447 205.810,171.114 201.137,165.734 197.448 C 162.411 195.170,161.674 194.822,164.035 196.646 C 168.756 200.292,175.516 206.958,179.200 211.599 C 179.585 212.084,180.133 212.755,180.418 213.090 C 180.703 213.426,181.622 214.645,182.459 215.800 C 183.297 216.955,184.149 218.125,184.354 218.400 C 184.653 218.802,186.156 221.191,187.942 224.105 C 189.976 227.421,192.542 232.765,194.503 237.768 C 195.175 239.483,195.270 239.443,196.076 237.125 C 197.148 234.039,199.675 227.940,201.404 224.268 C 203.441 219.941,206.513 214.033,208.304 211.000 C 210.696 206.948,212.187 204.503,213.061 203.200 C 218.206 195.523,218.737 194.792,223.524 188.789 C 230.523 180.013,238.672 171.731,248.139 163.773 C 248.711 163.293,250.171 162.035,251.384 160.977 C 253.632 159.018,255.882 157.254,257.732 156.000 C 258.299 155.615,258.745 155.281,258.723 155.258 C 258.495 155.020,250.465 157.724,247.900 158.903 C 245.159 160.163,240.697 162.362,239.800 162.895 C 239.195 163.254,237.665 164.159,236.401 164.905 C 230.747 168.243,221.193 175.052,214.978 180.175 C 214.360 180.684,213.026 181.775,212.013 182.600 C 210.999 183.425,209.396 184.753,208.450 185.550 C 206.565 187.139,206.202 187.284,206.196 186.450 C 206.193 186.148,206.015 184.055,205.800 181.800 C 204.999 173.407,205.423 159.630,206.700 152.600 C 206.850 151.775,207.162 150.076,207.393 148.824 C 210.468 132.200,219.156 116.529,230.414 107.300 C 235.405 103.209,239.614 100.600,246.700 97.208 C 248.350 96.418,249.878 95.674,250.095 95.555 C 250.313 95.437,251.078 95.091,251.795 94.787 C 252.513 94.483,253.865 93.902,254.800 93.495 C 257.109 92.491,262.605 90.267,264.200 89.692 C 264.915 89.434,266.355 88.898,267.400 88.500 C 268.445 88.102,270.020 87.516,270.900 87.198 C 271.780 86.880,273.490 86.251,274.700 85.800 C 275.910 85.349,277.485 84.765,278.200 84.501 C 280.904 83.505,282.319 82.962,282.900 82.697 C 283.230 82.547,284.040 82.201,284.700 81.928 C 287.808 80.645,288.882 80.152,291.297 78.896 C 292.726 78.153,294.232 77.333,294.643 77.073 C 295.055 76.813,295.436 76.600,295.489 76.600 C 296.097 76.600,301.604 72.248,303.570 70.214 C 308.184 65.439,310.484 61.521,313.639 53.063 C 314.184 51.600,314.082 51.533,315.510 54.300 " stroke="none" fill="transparent" fill-rule="evenodd"></path><path id="path3" d="M313.158 54.505 C 313.096 54.722,312.984 55.080,312.910 55.300 C 312.835 55.520,312.921 55.447,313.100 55.138 C 313.279 54.829,313.390 54.471,313.348 54.343 C 313.305 54.215,313.220 54.288,313.158 54.505 M315.800 55.400 C 316.024 55.840,316.253 56.200,316.308 56.200 C 316.363 56.200,316.224 55.840,316.000 55.400 C 315.776 54.960,315.547 54.600,315.492 54.600 C 315.437 54.600,315.576 54.960,315.800 55.400 M311.736 58.109 C 311.266 59.095,311.332 59.262,311.823 58.331 C 312.046 57.908,312.194 57.527,312.150 57.484 C 312.107 57.440,311.921 57.722,311.736 58.109 M318.339 60.297 C 318.522 60.681,318.707 60.959,318.751 60.916 C 318.842 60.825,318.235 59.600,318.098 59.600 C 318.048 59.600,318.156 59.914,318.339 60.297 M320.614 65.100 C 320.614 65.210,320.743 65.525,320.900 65.800 C 321.057 66.075,321.186 66.210,321.186 66.100 C 321.186 65.990,321.057 65.675,320.900 65.400 C 320.743 65.125,320.614 64.990,320.614 65.100 M321.823 67.900 C 321.827 68.010,322.003 68.460,322.214 68.900 C 322.426 69.340,322.543 69.475,322.475 69.200 C 322.334 68.634,321.812 67.594,321.823 67.900 M303.296 70.650 L 301.500 72.500 303.350 70.704 C 305.068 69.036,305.291 68.800,305.146 68.800 C 305.116 68.800,304.284 69.633,303.296 70.650 M323.315 71.800 C 323.388 72.075,323.532 72.435,323.634 72.600 C 323.763 72.808,323.778 72.747,323.685 72.400 C 323.612 72.125,323.468 71.765,323.366 71.600 C 323.237 71.392,323.222 71.453,323.315 71.800 M300.400 73.234 C 299.876 73.710,299.751 73.883,300.100 73.647 C 300.652 73.275,301.569 72.389,301.381 72.409 C 301.336 72.413,300.895 72.785,300.400 73.234 M325.828 79.600 C 325.828 79.765,325.905 80.080,326.000 80.300 C 326.108 80.552,326.172 80.589,326.172 80.400 C 326.172 80.235,326.095 79.920,326.000 79.700 C 325.892 79.448,325.828 79.411,325.828 79.600 M284.300 82.214 C 283.860 82.426,283.725 82.543,284.000 82.475 C 284.566 82.334,285.606 81.812,285.300 81.823 C 285.190 81.827,284.740 82.003,284.300 82.214 M281.300 83.414 C 280.860 83.626,280.725 83.743,281.000 83.675 C 281.566 83.534,282.606 83.012,282.300 83.023 C 282.190 83.027,281.740 83.203,281.300 83.414 M277.900 84.707 C 277.400 84.948,277.383 84.976,277.800 84.874 C 278.367 84.735,279.004 84.411,278.700 84.415 C 278.590 84.417,278.230 84.548,277.900 84.707 M327.244 85.300 C 327.246 85.520,327.316 85.970,327.400 86.300 C 327.537 86.839,327.553 86.849,327.556 86.400 C 327.558 86.125,327.488 85.675,327.400 85.400 C 327.275 85.008,327.241 84.987,327.244 85.300 M274.700 85.907 C 274.200 86.148,274.183 86.176,274.600 86.074 C 275.167 85.935,275.804 85.611,275.500 85.615 C 275.390 85.617,275.030 85.748,274.700 85.907 M270.900 87.307 C 270.400 87.548,270.383 87.576,270.800 87.474 C 271.367 87.335,272.004 87.011,271.700 87.015 C 271.590 87.017,271.230 87.148,270.900 87.307 M267.100 88.707 C 266.600 88.948,266.583 88.976,267.000 88.874 C 267.567 88.735,268.204 88.411,267.900 88.415 C 267.790 88.417,267.430 88.548,267.100 88.707 M263.900 89.907 C 263.400 90.148,263.383 90.176,263.800 90.074 C 264.367 89.935,265.004 89.611,264.700 89.615 C 264.590 89.617,264.230 89.748,263.900 89.907 M260.800 91.100 C 260.525 91.257,260.390 91.386,260.500 91.386 C 260.610 91.386,260.925 91.257,261.200 91.100 C 261.475 90.943,261.610 90.814,261.500 90.814 C 261.390 90.814,261.075 90.943,260.800 91.100 M328.443 92.300 C 328.438 92.630,328.505 93.350,328.591 93.900 C 328.718 94.718,328.749 94.772,328.758 94.200 C 328.765 93.815,328.698 93.095,328.610 92.600 C 328.494 91.946,328.448 91.864,328.443 92.300 M257.800 92.300 C 257.525 92.457,257.390 92.586,257.500 92.586 C 257.610 92.586,257.925 92.457,258.200 92.300 C 258.475 92.143,258.610 92.014,258.500 92.014 C 258.390 92.014,258.075 92.143,257.800 92.300 M254.000 93.900 C 253.725 94.057,253.590 94.186,253.700 94.186 C 253.810 94.186,254.125 94.057,254.400 93.900 C 254.675 93.743,254.810 93.614,254.700 93.614 C 254.590 93.614,254.275 93.743,254.000 93.900 M328.850 95.900 C 328.853 96.340,328.894 96.496,328.941 96.248 C 328.989 95.999,328.987 95.639,328.937 95.448 C 328.887 95.256,328.848 95.460,328.850 95.900 M246.200 97.500 C 245.705 97.765,245.371 97.986,245.458 97.991 C 245.670 98.003,247.200 97.217,247.200 97.096 C 247.200 96.963,247.208 96.960,246.200 97.500 M329.057 98.300 C 329.059 98.850,329.098 99.051,329.144 98.747 C 329.189 98.443,329.188 97.993,329.141 97.747 C 329.093 97.501,329.056 97.750,329.057 98.300 M243.000 99.100 C 242.505 99.365,242.171 99.586,242.258 99.591 C 242.470 99.603,244.000 98.817,244.000 98.696 C 244.000 98.563,244.008 98.560,243.000 99.100 M238.950 101.314 C 238.202 101.720,238.248 101.889,239.000 101.500 C 239.330 101.329,239.600 101.147,239.600 101.095 C 239.600 100.966,239.579 100.973,238.950 101.314 M329.279 104.500 C 329.279 106.040,329.311 106.644,329.349 105.841 C 329.387 105.039,329.386 103.779,329.348 103.041 C 329.310 102.304,329.279 102.960,329.279 104.500 M236.850 102.623 C 236.168 103.060,235.948 103.353,236.550 103.022 C 237.009 102.769,237.728 102.214,237.600 102.210 C 237.545 102.208,237.207 102.394,236.850 102.623 M233.100 105.318 L 232.500 105.833 233.150 105.403 C 233.507 105.166,233.800 104.934,233.800 104.886 C 233.800 104.737,233.715 104.789,233.100 105.318 M231.200 106.817 L 230.300 107.633 231.250 106.892 C 232.083 106.243,232.330 105.999,232.150 106.001 C 232.123 106.001,231.695 106.368,231.200 106.817 M226.194 111.350 L 224.900 112.700 226.250 111.406 C 226.993 110.694,227.600 110.086,227.600 110.056 C 227.600 109.909,227.396 110.096,226.194 111.350 M329.054 110.800 C 329.054 111.295,329.093 111.498,329.141 111.250 C 329.189 111.003,329.189 110.597,329.141 110.350 C 329.093 110.103,329.054 110.305,329.054 110.800 M328.850 113.300 C 328.853 113.740,328.894 113.896,328.941 113.648 C 328.989 113.399,328.987 113.039,328.937 112.848 C 328.887 112.656,328.848 112.860,328.850 113.300 M224.087 113.650 C 222.907 114.909,222.318 115.600,222.424 115.600 C 222.476 115.600,223.083 114.970,223.772 114.200 C 225.144 112.668,225.359 112.292,224.087 113.650 M328.654 115.000 C 328.654 115.495,328.693 115.697,328.741 115.450 C 328.789 115.203,328.789 114.797,328.741 114.550 C 328.693 114.303,328.654 114.505,328.654 115.000 M328.450 116.700 C 328.453 117.140,328.494 117.296,328.541 117.048 C 328.589 116.799,328.587 116.439,328.537 116.248 C 328.487 116.056,328.448 116.260,328.450 116.700 M219.200 119.800 C 218.965 120.130,218.818 120.400,218.873 120.400 C 218.928 120.400,219.165 120.130,219.400 119.800 C 219.635 119.470,219.782 119.200,219.727 119.200 C 219.672 119.200,219.435 119.470,219.200 119.800 M327.300 123.400 C 327.223 123.855,327.202 124.269,327.254 124.320 C 327.305 124.371,327.407 124.038,327.480 123.580 C 327.553 123.122,327.574 122.708,327.526 122.660 C 327.479 122.612,327.377 122.945,327.300 123.400 M215.300 126.200 C 215.129 126.530,215.035 126.800,215.090 126.800 C 215.145 126.800,215.329 126.530,215.500 126.200 C 215.671 125.870,215.765 125.600,215.710 125.600 C 215.655 125.600,215.471 125.870,215.300 126.200 M214.200 128.400 C 213.976 128.840,213.837 129.200,213.892 129.200 C 213.947 129.200,214.176 128.840,214.400 128.400 C 214.624 127.960,214.763 127.600,214.708 127.600 C 214.653 127.600,214.424 127.960,214.200 128.400 M212.832 131.309 C 212.497 132.044,212.561 132.201,212.924 131.532 C 213.093 131.220,213.194 130.927,213.148 130.881 C 213.102 130.836,212.960 131.028,212.832 131.309 M323.422 137.622 C 323.299 137.976,323.233 138.300,323.276 138.343 C 323.319 138.385,323.455 138.131,323.578 137.778 C 323.701 137.424,323.767 137.100,323.724 137.057 C 323.681 137.015,323.545 137.269,323.422 137.622 M210.240 138.140 C 209.944 139.104,210.087 139.248,210.400 138.300 C 210.532 137.900,210.601 137.534,210.553 137.487 C 210.506 137.439,210.365 137.733,210.240 138.140 M322.222 140.822 C 322.099 141.176,322.033 141.500,322.076 141.543 C 322.119 141.585,322.255 141.331,322.378 140.978 C 322.501 140.624,322.567 140.300,322.524 140.257 C 322.481 140.215,322.345 140.469,322.222 140.822 M208.914 142.514 C 208.841 142.807,208.819 143.086,208.866 143.133 C 208.913 143.180,209.012 142.979,209.086 142.686 C 209.159 142.393,209.181 142.114,209.134 142.067 C 209.087 142.020,208.988 142.221,208.914 142.514 M319.632 147.109 C 319.297 147.844,319.361 148.001,319.724 147.332 C 319.893 147.020,319.994 146.727,319.948 146.681 C 319.902 146.636,319.760 146.828,319.632 147.109 M207.629 147.929 C 207.503 148.555,207.437 149.104,207.483 149.149 C 207.528 149.195,207.671 148.722,207.800 148.100 C 207.929 147.478,207.995 146.928,207.946 146.879 C 207.897 146.830,207.754 147.303,207.629 147.929 M318.438 149.710 C 317.835 150.950,317.902 151.123,318.523 149.930 C 318.801 149.397,318.993 148.927,318.951 148.885 C 318.910 148.843,318.678 149.214,318.438 149.710 M206.492 154.492 C 206.415 155.112,206.395 155.662,206.448 155.714 C 206.500 155.767,206.604 155.300,206.677 154.677 C 206.750 154.054,206.770 153.504,206.722 153.455 C 206.673 153.406,206.570 153.873,206.492 154.492 M315.800 155.000 C 315.576 155.440,315.437 155.800,315.492 155.800 C 315.547 155.800,315.776 155.440,316.000 155.000 C 316.224 154.560,316.363 154.200,316.308 154.200 C 316.253 154.200,316.024 154.560,315.800 155.000 M259.025 154.942 C 259.177 155.014,259.091 155.193,258.780 155.451 C 258.310 155.841,258.310 155.843,258.763 155.575 C 259.255 155.283,259.376 154.937,259.010 154.870 C 258.884 154.847,258.890 154.878,259.025 154.942 M256.300 155.600 C 256.048 155.708,256.011 155.772,256.200 155.772 C 256.365 155.772,256.680 155.695,256.900 155.600 C 257.152 155.492,257.189 155.428,257.000 155.428 C 256.835 155.428,256.520 155.505,256.300 155.600 M122.650 155.743 C 122.953 155.789,123.447 155.789,123.750 155.743 C 124.053 155.697,123.805 155.660,123.200 155.660 C 122.595 155.660,122.347 155.697,122.650 155.743 M129.450 155.746 C 129.863 155.789,130.537 155.789,130.950 155.746 C 131.363 155.703,131.025 155.667,130.200 155.667 C 129.375 155.667,129.037 155.703,129.450 155.746 M206.246 156.600 C 206.246 156.985,206.288 157.143,206.338 156.950 C 206.388 156.758,206.388 156.442,206.338 156.250 C 206.288 156.058,206.246 156.215,206.246 156.600 M256.900 156.718 L 256.300 157.233 256.950 156.803 C 257.308 156.566,257.600 156.334,257.600 156.286 C 257.600 156.137,257.515 156.189,256.900 156.718 M113.400 156.800 C 112.728 157.015,113.454 157.015,114.300 156.800 C 114.839 156.663,114.849 156.647,114.400 156.644 C 114.125 156.642,113.675 156.712,113.400 156.800 M314.500 157.400 C 314.329 157.730,314.235 158.000,314.290 158.000 C 314.345 158.000,314.529 157.730,314.700 157.400 C 314.871 157.070,314.965 156.800,314.910 156.800 C 314.855 156.800,314.671 157.070,314.500 157.400 M253.483 159.314 L 252.700 160.029 253.550 159.381 C 254.327 158.789,254.516 158.600,254.333 158.600 C 254.297 158.600,253.914 158.922,253.483 159.314 M246.200 159.400 C 245.815 159.611,245.590 159.783,245.700 159.783 C 245.810 159.783,246.215 159.611,246.600 159.400 C 246.985 159.189,247.210 159.017,247.100 159.017 C 246.990 159.017,246.585 159.189,246.200 159.400 M251.887 160.650 L 251.300 161.300 251.950 160.713 C 252.556 160.165,252.692 160.000,252.537 160.000 C 252.503 160.000,252.210 160.293,251.887 160.650 M100.800 160.700 C 100.525 160.857,100.390 160.986,100.500 160.986 C 100.610 160.986,100.925 160.857,101.200 160.700 C 101.475 160.543,101.610 160.414,101.500 160.414 C 101.390 160.414,101.075 160.543,100.800 160.700 M98.200 161.900 C 97.705 162.165,97.390 162.382,97.500 162.382 C 97.610 162.382,98.105 162.165,98.600 161.900 C 99.095 161.635,99.410 161.418,99.300 161.418 C 99.190 161.418,98.695 161.635,98.200 161.900 M96.150 162.914 C 95.402 163.320,95.448 163.489,96.200 163.100 C 96.530 162.929,96.800 162.747,96.800 162.695 C 96.800 162.566,96.779 162.573,96.150 162.914 M205.650 163.700 C 205.653 164.140,205.694 164.296,205.741 164.048 C 205.789 163.799,205.787 163.439,205.737 163.248 C 205.687 163.056,205.648 163.260,205.650 163.700 M248.585 163.534 L 248.100 164.068 248.644 163.684 C 248.943 163.473,249.190 163.233,249.194 163.150 C 249.204 162.904,249.094 162.973,248.585 163.534 M311.076 163.250 C 310.388 164.418,310.343 164.518,310.694 164.100 C 311.100 163.616,311.450 163.000,311.319 163.000 C 311.266 163.000,311.157 163.113,311.076 163.250 M236.850 164.313 C 236.382 164.593,236.000 164.870,236.000 164.928 C 236.000 165.035,237.349 164.269,237.690 163.968 C 238.034 163.664,237.714 163.796,236.850 164.313 M163.400 164.090 C 163.400 164.145,163.670 164.329,164.000 164.500 C 164.330 164.671,164.600 164.765,164.600 164.710 C 164.600 164.655,164.330 164.471,164.000 164.300 C 163.670 164.129,163.400 164.035,163.400 164.090 M309.200 166.200 C 308.965 166.530,308.818 166.800,308.873 166.800 C 308.928 166.800,309.165 166.530,309.400 166.200 C 309.635 165.870,309.782 165.600,309.727 165.600 C 309.672 165.600,309.435 165.870,309.200 166.200 M244.389 167.150 L 243.700 167.900 244.450 167.211 C 245.148 166.569,245.292 166.400,245.139 166.400 C 245.106 166.400,244.768 166.738,244.389 167.150 M205.484 171.000 C 205.484 173.145,205.513 174.023,205.549 172.950 C 205.585 171.878,205.585 170.123,205.549 169.050 C 205.513 167.978,205.484 168.855,205.484 171.000 M87.700 168.318 L 87.100 168.833 87.750 168.403 C 88.108 168.166,88.400 167.934,88.400 167.886 C 88.400 167.737,88.315 167.789,87.700 168.318 M170.000 167.873 C 170.000 167.928,170.270 168.165,170.600 168.400 C 170.930 168.635,171.200 168.782,171.200 168.727 C 171.200 168.672,170.930 168.435,170.600 168.200 C 170.270 167.965,170.000 167.818,170.000 167.873 M242.600 168.700 C 242.114 169.195,241.762 169.600,241.817 169.600 C 241.872 169.600,242.314 169.195,242.800 168.700 C 243.286 168.205,243.638 167.800,243.583 167.800 C 243.528 167.800,243.086 168.205,242.600 168.700 M240.393 170.750 L 239.300 171.900 240.450 170.807 C 241.518 169.791,241.692 169.600,241.543 169.600 C 241.512 169.600,240.994 170.118,240.393 170.750 M305.760 171.250 C 305.179 172.024,304.948 172.400,305.054 172.400 C 305.097 172.400,305.423 171.995,305.779 171.500 C 306.516 170.473,306.500 170.263,305.760 171.250 M174.600 171.263 C 174.600 171.297,174.893 171.590,175.250 171.913 L 175.900 172.500 175.313 171.850 C 174.765 171.244,174.600 171.108,174.600 171.263 M224.900 172.318 L 224.300 172.833 224.950 172.403 C 225.308 172.166,225.600 171.934,225.600 171.886 C 225.600 171.737,225.515 171.789,224.900 172.318 M176.600 173.100 C 176.973 173.485,177.323 173.800,177.378 173.800 C 177.433 173.800,177.173 173.485,176.800 173.100 C 176.427 172.715,176.077 172.400,176.022 172.400 C 175.967 172.400,176.227 172.715,176.600 173.100 M81.389 173.550 L 80.700 174.300 81.450 173.611 C 82.148 172.969,82.292 172.800,82.139 172.800 C 82.106 172.800,81.768 173.138,81.389 173.550 M235.794 175.150 L 234.500 176.500 235.850 175.206 C 236.593 174.494,237.200 173.886,237.200 173.856 C 237.200 173.709,236.996 173.896,235.794 175.150 M221.661 174.715 L 221.100 175.229 221.750 174.777 C 222.107 174.528,222.400 174.297,222.400 174.262 C 222.400 174.105,222.179 174.240,221.661 174.715 M303.172 174.750 C 302.597 175.445,302.353 175.800,302.452 175.800 C 302.507 175.800,302.793 175.485,303.086 175.100 C 303.631 174.386,303.697 174.116,303.172 174.750 M78.892 175.850 L 77.900 176.900 78.950 175.908 C 79.528 175.362,80.000 174.889,80.000 174.858 C 80.000 174.708,79.815 174.874,78.892 175.850 M179.800 176.300 C 180.173 176.685,180.523 177.000,180.578 177.000 C 180.633 177.000,180.373 176.685,180.000 176.300 C 179.627 175.915,179.277 175.600,179.222 175.600 C 179.167 175.600,179.427 175.915,179.800 176.300 M77.533 176.933 C 77.200 177.266,77.479 177.397,78.450 177.364 L 79.500 177.328 78.545 177.253 C 78.014 177.211,77.642 177.094,77.707 176.989 C 77.841 176.772,77.731 176.736,77.533 176.933 M80.050 177.538 C 80.243 177.588,80.558 177.588,80.750 177.538 C 80.942 177.488,80.785 177.446,80.400 177.446 C 80.015 177.446,79.858 177.488,80.050 177.538 M205.646 178.200 C 205.646 178.585,205.688 178.743,205.738 178.550 C 205.788 178.358,205.788 178.043,205.738 177.850 C 205.688 177.658,205.646 177.815,205.646 178.200 M216.500 178.722 L 215.700 179.438 216.550 178.802 C 217.282 178.255,217.545 177.991,217.350 178.003 C 217.322 178.005,216.940 178.328,216.500 178.722 M231.892 179.250 C 229.661 181.583,228.916 182.400,229.025 182.400 C 229.084 182.400,230.055 181.410,231.182 180.200 C 232.309 178.990,233.199 178.000,233.160 178.000 C 233.121 178.000,232.550 178.563,231.892 179.250 M298.327 180.591 C 297.817 181.137,297.400 181.647,297.400 181.725 C 297.400 181.803,297.429 181.829,297.464 181.783 C 297.499 181.738,297.961 181.228,298.491 180.650 C 299.021 180.072,299.410 179.600,299.355 179.600 C 299.300 179.600,298.837 180.046,298.327 180.591 M295.993 183.150 L 294.900 184.300 296.050 183.207 C 297.118 182.191,297.292 182.000,297.143 182.000 C 297.112 182.000,296.594 182.518,295.993 183.150 M184.574 182.500 C 184.682 182.720,184.917 183.080,185.096 183.300 L 185.422 183.700 185.226 183.300 C 185.118 183.080,184.883 182.720,184.704 182.500 L 184.378 182.100 184.574 182.500 M209.800 184.120 C 209.195 184.622,208.520 185.220,208.300 185.449 C 208.080 185.678,208.597 185.298,209.450 184.606 C 210.808 183.502,211.145 183.188,210.950 183.204 C 210.923 183.207,210.405 183.619,209.800 184.120 M206.046 184.000 C 206.046 184.385,206.088 184.543,206.138 184.350 C 206.188 184.158,206.188 183.843,206.138 183.650 C 206.088 183.458,206.046 183.615,206.046 184.000 M97.700 185.800 C 98.464 186.570,99.134 187.200,99.189 187.200 C 99.244 187.200,98.664 186.570,97.900 185.800 C 97.136 185.030,96.466 184.400,96.411 184.400 C 96.356 184.400,96.936 185.030,97.700 185.800 M206.233 185.800 C 206.186 187.024,206.489 187.205,207.244 186.405 L 207.900 185.709 207.256 186.286 C 206.564 186.906,206.490 186.859,206.339 185.700 C 206.264 185.131,206.259 185.136,206.233 185.800 M291.692 187.450 L 290.700 188.500 291.750 187.508 C 292.328 186.962,292.800 186.489,292.800 186.458 C 292.800 186.308,292.615 186.474,291.692 187.450 M99.600 187.863 C 99.600 187.897,99.892 188.190,100.250 188.513 L 100.900 189.100 100.313 188.450 C 99.765 187.844,99.600 187.708,99.600 187.863 M289.011 189.818 C 288.235 190.488,287.600 191.084,287.600 191.142 C 287.600 191.201,288.207 190.726,288.950 190.087 C 289.693 189.449,290.386 188.853,290.490 188.763 C 290.595 188.673,290.622 188.600,290.551 188.600 C 290.481 188.600,289.788 189.148,289.011 189.818 M102.287 191.066 C 102.595 191.470,102.888 191.800,102.937 191.800 C 103.076 191.800,102.210 190.630,101.954 190.472 C 101.830 190.395,101.979 190.662,102.287 191.066 M220.487 192.734 C 220.179 193.138,220.030 193.405,220.154 193.328 C 220.410 193.170,221.276 192.000,221.137 192.000 C 221.088 192.000,220.795 192.330,220.487 192.734 M103.600 192.800 C 103.835 193.130,104.072 193.400,104.127 193.400 C 104.182 193.400,104.035 193.130,103.800 192.800 C 103.565 192.470,103.328 192.200,103.273 192.200 C 103.218 192.200,103.365 192.470,103.600 192.800 M159.995 193.726 C 160.378 194.042,160.760 194.311,160.845 194.325 C 160.930 194.339,161.095 194.361,161.212 194.375 C 161.328 194.389,161.377 194.476,161.320 194.568 C 161.262 194.661,161.505 194.946,161.858 195.202 C 162.388 195.586,162.439 195.598,162.150 195.268 C 161.957 195.048,161.864 194.803,161.943 194.723 C 162.023 194.644,161.929 194.640,161.736 194.714 C 161.510 194.801,161.404 194.763,161.442 194.607 C 161.474 194.474,161.005 194.093,160.400 193.759 L 159.300 193.153 159.995 193.726 M219.287 194.334 C 218.979 194.738,218.830 195.005,218.954 194.928 C 219.210 194.770,220.076 193.600,219.937 193.600 C 219.888 193.600,219.595 193.930,219.287 194.334 M160.085 194.572 C 160.407 194.915,160.716 195.151,160.771 195.096 C 160.825 195.041,161.102 195.200,161.385 195.448 L 161.900 195.900 161.421 195.356 C 161.157 195.057,160.874 194.854,160.792 194.905 C 160.709 194.956,160.593 194.869,160.532 194.712 C 160.472 194.555,160.215 194.319,159.961 194.187 C 159.558 193.978,159.574 194.027,160.085 194.572 M189.834 194.700 C 189.831 194.920,189.905 195.280,190.000 195.500 C 190.219 196.010,190.219 195.484,190.000 194.800 C 189.871 194.398,189.839 194.378,189.834 194.700 M163.000 196.900 C 163.373 197.285,163.723 197.600,163.778 197.600 C 163.833 197.600,163.573 197.285,163.200 196.900 C 162.827 196.515,162.477 196.200,162.422 196.200 C 162.367 196.200,162.627 196.515,163.000 196.900 M278.150 197.714 C 277.402 198.120,277.448 198.289,278.200 197.900 C 278.530 197.729,278.800 197.547,278.800 197.495 C 278.800 197.366,278.779 197.373,278.150 197.714 M167.800 198.673 C 167.800 198.728,168.070 198.965,168.400 199.200 C 168.730 199.435,169.000 199.582,169.000 199.527 C 169.000 199.472,168.730 199.235,168.400 199.000 C 168.070 198.765,167.800 198.618,167.800 198.673 M215.400 199.800 C 215.165 200.130,215.018 200.400,215.073 200.400 C 215.128 200.400,215.365 200.130,215.600 199.800 C 215.835 199.470,215.982 199.200,215.927 199.200 C 215.872 199.200,215.635 199.470,215.400 199.800 M108.800 200.000 C 109.035 200.330,109.272 200.600,109.327 200.600 C 109.382 200.600,109.235 200.330,109.000 200.000 C 108.765 199.670,108.528 199.400,108.473 199.400 C 108.418 199.400,108.565 199.670,108.800 200.000 M166.200 199.863 C 166.200 199.897,166.493 200.190,166.850 200.513 L 167.500 201.100 166.913 200.450 C 166.365 199.844,166.200 199.708,166.200 199.863 M190.867 202.200 C 190.867 203.025,190.903 203.363,190.946 202.950 C 190.989 202.538,190.989 201.863,190.946 201.450 C 190.903 201.038,190.867 201.375,190.867 202.200 M170.542 202.597 C 171.446 203.524,172.212 204.241,172.245 204.191 C 172.278 204.141,171.539 203.383,170.603 202.506 L 168.900 200.912 170.542 202.597 M173.000 202.455 C 173.000 202.494,173.293 202.739,173.650 203.001 C 174.052 203.295,174.192 203.343,174.016 203.127 C 173.750 202.799,173.000 202.303,173.000 202.455 M227.800 202.900 C 228.075 203.057,228.390 203.186,228.500 203.186 C 228.610 203.186,228.475 203.057,228.200 202.900 C 227.925 202.743,227.610 202.614,227.500 202.614 C 227.390 202.614,227.525 202.743,227.800 202.900 M169.200 202.926 C 169.200 203.032,169.583 203.475,170.050 203.909 L 170.900 204.700 170.100 203.803 C 169.660 203.310,169.278 202.867,169.250 202.820 C 169.222 202.772,169.200 202.820,169.200 202.926 M267.100 203.107 C 266.600 203.348,266.583 203.376,267.000 203.274 C 267.567 203.135,268.204 202.811,267.900 202.815 C 267.790 202.817,267.430 202.948,267.100 203.107 M218.100 203.800 C 217.929 204.130,217.835 204.400,217.890 204.400 C 217.945 204.400,218.129 204.130,218.300 203.800 C 218.471 203.470,218.565 203.200,218.510 203.200 C 218.455 203.200,218.271 203.470,218.100 203.800 M175.200 204.073 C 175.200 204.128,175.470 204.365,175.800 204.600 C 176.130 204.835,176.400 204.982,176.400 204.927 C 176.400 204.872,176.130 204.635,175.800 204.400 C 175.470 204.165,175.200 204.018,175.200 204.073 M231.500 204.307 C 231.830 204.458,232.235 204.579,232.400 204.576 C 232.565 204.572,232.385 204.448,232.000 204.300 C 231.087 203.948,230.728 203.954,231.500 204.307 M190.864 205.600 C 190.864 206.315,190.900 206.607,190.945 206.250 C 190.989 205.893,190.989 205.308,190.945 204.950 C 190.900 204.593,190.864 204.885,190.864 205.600 M174.200 206.300 C 175.130 207.235,175.936 208.000,175.991 208.000 C 176.046 208.000,175.330 207.235,174.400 206.300 C 173.470 205.365,172.664 204.600,172.609 204.600 C 172.554 204.600,173.270 205.365,174.200 206.300 M216.800 206.200 C 216.576 206.640,216.437 207.000,216.492 207.000 C 216.547 207.000,216.776 206.640,217.000 206.200 C 217.224 205.760,217.363 205.400,217.308 205.400 C 217.253 205.400,217.024 205.760,216.800 206.200 M258.400 205.600 C 258.004 205.727,257.983 205.760,258.300 205.760 C 258.520 205.760,258.925 205.688,259.200 205.600 C 259.596 205.473,259.617 205.440,259.300 205.440 C 259.080 205.440,258.675 205.512,258.400 205.600 M114.000 207.000 C 114.235 207.330,114.472 207.600,114.527 207.600 C 114.582 207.600,114.435 207.330,114.200 207.000 C 113.965 206.670,113.728 206.400,113.673 206.400 C 113.618 206.400,113.765 206.670,114.000 207.000 M172.798 207.197 C 173.145 207.636,173.534 208.059,173.661 208.138 C 173.789 208.217,173.547 207.858,173.123 207.341 C 172.699 206.823,172.310 206.400,172.259 206.400 C 172.208 206.400,172.451 206.759,172.798 207.197 M178.472 206.554 C 178.630 206.810,179.800 207.676,179.800 207.537 C 179.800 207.488,179.470 207.195,179.066 206.887 C 178.662 206.579,178.395 206.430,178.472 206.554 M252.650 206.538 C 252.843 206.588,253.157 206.588,253.350 206.538 C 253.543 206.488,253.385 206.446,253.000 206.446 C 252.615 206.446,252.457 206.488,252.650 206.538 M244.658 206.748 C 245.405 206.787,246.575 206.787,247.258 206.748 C 247.941 206.709,247.330 206.677,245.900 206.678 C 244.470 206.678,243.911 206.710,244.658 206.748 M249.350 206.746 C 249.818 206.789,250.582 206.789,251.050 206.746 C 251.518 206.704,251.135 206.670,250.200 206.670 C 249.265 206.670,248.882 206.704,249.350 206.746 M210.476 207.450 C 209.788 208.618,209.743 208.718,210.094 208.300 C 210.500 207.816,210.850 207.200,210.719 207.200 C 210.666 207.200,210.557 207.313,210.476 207.450 M169.300 208.200 C 169.471 208.530,169.655 208.800,169.710 208.800 C 169.765 208.800,169.671 208.530,169.500 208.200 C 169.329 207.870,169.145 207.600,169.090 207.600 C 169.035 207.600,169.129 207.870,169.300 208.200 M170.218 209.900 C 170.218 210.010,170.435 210.505,170.700 211.000 C 170.965 211.495,171.182 211.810,171.182 211.700 C 171.182 211.590,170.965 211.095,170.700 210.600 C 170.435 210.105,170.218 209.790,170.218 209.900 M179.398 212.197 C 179.745 212.636,180.134 213.059,180.261 213.138 C 180.389 213.217,180.147 212.858,179.723 212.341 C 179.299 211.823,178.910 211.400,178.859 211.400 C 178.808 211.400,179.051 211.759,179.398 212.197 M176.893 212.550 C 177.201 213.018,177.491 213.400,177.538 213.400 C 177.682 213.400,176.916 212.183,176.616 211.935 C 176.460 211.806,176.584 212.082,176.893 212.550 M171.614 212.900 C 171.614 213.010,171.743 213.325,171.900 213.600 C 172.057 213.875,172.186 214.010,172.186 213.900 C 172.186 213.790,172.057 213.475,171.900 213.200 C 171.743 212.925,171.614 212.790,171.614 212.900 M213.032 213.709 C 212.697 214.444,212.761 214.601,213.124 213.932 C 213.293 213.620,213.394 213.327,213.348 213.281 C 213.302 213.236,213.160 213.428,213.032 213.709 M180.887 214.066 C 181.195 214.470,181.488 214.800,181.537 214.800 C 181.676 214.800,180.810 213.630,180.554 213.472 C 180.430 213.395,180.579 213.662,180.887 214.066 M206.600 214.200 C 206.376 214.640,206.237 215.000,206.292 215.000 C 206.347 215.000,206.576 214.640,206.800 214.200 C 207.024 213.760,207.163 213.400,207.108 213.400 C 207.053 213.400,206.824 213.760,206.600 214.200 M122.300 216.600 C 123.506 217.810,124.538 218.800,124.593 218.800 C 124.648 218.800,123.706 217.810,122.500 216.600 C 121.294 215.390,120.262 214.400,120.207 214.400 C 120.152 214.400,121.094 215.390,122.300 216.600 M182.200 215.800 C 182.435 216.130,182.672 216.400,182.727 216.400 C 182.782 216.400,182.635 216.130,182.400 215.800 C 182.165 215.470,181.928 215.200,181.873 215.200 C 181.818 215.200,181.965 215.470,182.200 215.800 M211.936 216.109 C 211.466 217.095,211.532 217.262,212.023 216.331 C 212.246 215.908,212.394 215.527,212.350 215.484 C 212.307 215.440,212.121 215.722,211.936 216.109 M205.300 216.600 C 205.129 216.930,205.035 217.200,205.090 217.200 C 205.145 217.200,205.329 216.930,205.500 216.600 C 205.671 216.270,205.765 216.000,205.710 216.000 C 205.655 216.000,205.471 216.270,205.300 216.600 M184.600 219.200 C 184.835 219.530,185.072 219.800,185.127 219.800 C 185.182 219.800,185.035 219.530,184.800 219.200 C 184.565 218.870,184.328 218.600,184.273 218.600 C 184.218 218.600,184.365 218.870,184.600 219.200 M174.315 219.400 C 174.388 219.675,174.532 220.035,174.634 220.200 C 174.763 220.408,174.778 220.347,174.685 220.000 C 174.612 219.725,174.468 219.365,174.366 219.200 C 174.237 218.992,174.222 219.053,174.315 219.400 M210.300 219.931 C 210.132 220.333,210.041 220.708,210.097 220.764 C 210.154 220.820,210.200 220.818,210.200 220.758 C 210.200 220.698,210.336 220.323,210.503 219.924 C 210.669 219.526,210.760 219.200,210.705 219.200 C 210.650 219.200,210.468 219.529,210.300 219.931 M181.900 220.600 C 182.071 220.930,182.255 221.200,182.310 221.200 C 182.365 221.200,182.271 220.930,182.100 220.600 C 181.929 220.270,181.745 220.000,181.690 220.000 C 181.635 220.000,181.729 220.270,181.900 220.600 M209.133 222.833 C 208.952 223.294,208.837 223.704,208.877 223.744 C 208.917 223.784,209.100 223.442,209.283 222.983 C 209.467 222.525,209.582 222.115,209.540 222.073 C 209.497 222.030,209.314 222.373,209.133 222.833 M183.240 223.096 C 183.480 223.588,183.710 223.957,183.752 223.915 C 183.842 223.825,183.034 222.200,182.899 222.200 C 182.847 222.200,183.001 222.603,183.240 223.096 M188.300 225.200 C 188.471 225.530,188.655 225.800,188.710 225.800 C 188.765 225.800,188.671 225.530,188.500 225.200 C 188.329 224.870,188.145 224.600,188.090 224.600 C 188.035 224.600,188.129 224.870,188.300 225.200 M207.822 226.222 C 207.699 226.576,207.633 226.900,207.676 226.943 C 207.719 226.985,207.855 226.731,207.978 226.378 C 208.101 226.024,208.167 225.700,208.124 225.657 C 208.081 225.615,207.945 225.869,207.822 226.222 M137.400 227.300 C 137.675 227.457,137.990 227.586,138.100 227.586 C 138.210 227.586,138.075 227.457,137.800 227.300 C 137.525 227.143,137.210 227.014,137.100 227.014 C 136.990 227.014,137.125 227.143,137.400 227.300 M199.832 227.909 C 199.497 228.644,199.561 228.801,199.924 228.132 C 200.093 227.820,200.194 227.527,200.148 227.481 C 200.102 227.436,199.960 227.628,199.832 227.909 M185.614 228.100 C 185.614 228.210,185.743 228.525,185.900 228.800 C 186.057 229.075,186.186 229.210,186.186 229.100 C 186.186 228.990,186.057 228.675,185.900 228.400 C 185.743 228.125,185.614 227.990,185.614 228.100 M168.700 228.600 C 168.448 228.708,168.411 228.772,168.600 228.772 C 168.765 228.772,169.080 228.695,169.300 228.600 C 169.552 228.492,169.589 228.428,169.400 228.428 C 169.235 228.428,168.920 228.505,168.700 228.600 M206.623 229.620 C 206.500 229.972,206.406 230.359,206.414 230.480 C 206.422 230.601,206.557 230.348,206.715 229.917 C 206.873 229.487,206.967 229.100,206.924 229.057 C 206.881 229.015,206.746 229.268,206.623 229.620 M145.100 229.791 C 145.484 229.965,146.555 230.078,146.383 229.927 C 146.338 229.886,145.940 229.798,145.500 229.731 C 144.942 229.646,144.821 229.664,145.100 229.791 M198.632 230.709 C 198.297 231.444,198.361 231.601,198.724 230.932 C 198.893 230.620,198.994 230.327,198.948 230.281 C 198.902 230.236,198.760 230.428,198.632 230.709 M153.358 230.748 C 154.050 230.787,155.130 230.787,155.758 230.748 C 156.386 230.708,155.820 230.676,154.500 230.676 C 153.180 230.677,152.666 230.709,153.358 230.748 M187.115 231.800 C 187.188 232.075,187.332 232.435,187.434 232.600 C 187.563 232.808,187.578 232.747,187.485 232.400 C 187.412 232.125,187.268 231.765,187.166 231.600 C 187.037 231.392,187.022 231.453,187.115 231.800 M196.222 236.822 C 196.099 237.176,196.033 237.500,196.076 237.543 C 196.119 237.585,196.255 237.331,196.378 236.978 C 196.501 236.624,196.567 236.300,196.524 236.257 C 196.481 236.215,196.345 236.469,196.222 236.822 M203.914 238.314 C 203.841 238.607,203.819 238.886,203.866 238.933 C 203.913 238.980,204.012 238.779,204.086 238.486 C 204.159 238.193,204.181 237.914,204.134 237.867 C 204.087 237.820,203.988 238.021,203.914 238.314 M194.707 239.000 C 194.853 239.528,195.142 239.932,195.269 239.787 C 195.311 239.739,195.171 239.430,194.958 239.100 C 194.603 238.552,194.582 238.543,194.707 239.000 M189.725 240.200 C 189.795 240.585,189.931 241.080,190.027 241.300 C 190.147 241.575,190.162 241.481,190.075 241.000 C 190.005 240.615,189.869 240.120,189.773 239.900 C 189.653 239.625,189.638 239.719,189.725 240.200 M202.800 242.600 C 202.665 243.162,202.595 243.661,202.643 243.710 C 202.692 243.759,202.839 243.335,202.969 242.769 C 203.100 242.203,203.170 241.704,203.126 241.659 C 203.081 241.615,202.935 242.038,202.800 242.600 M201.413 248.613 C 201.281 249.287,201.211 249.878,201.259 249.926 C 201.307 249.973,201.454 249.461,201.587 248.787 C 201.719 248.113,201.789 247.522,201.741 247.474 C 201.693 247.427,201.546 247.939,201.413 248.613 M189.711 258.511 C 189.636 258.912,189.614 259.281,189.663 259.330 C 189.712 259.379,189.814 259.090,189.889 258.689 C 189.964 258.288,189.986 257.919,189.937 257.870 C 189.888 257.821,189.786 258.110,189.711 258.511 M199.050 263.900 C 199.053 264.340,199.094 264.496,199.141 264.248 C 199.189 263.999,199.187 263.639,199.137 263.448 C 199.087 263.256,199.048 263.460,199.050 263.900 M188.320 265.220 C 188.247 265.678,188.226 266.092,188.274 266.140 C 188.321 266.188,188.423 265.855,188.500 265.400 C 188.577 264.945,188.598 264.531,188.546 264.480 C 188.495 264.429,188.393 264.762,188.320 265.220 M198.860 265.800 C 198.860 266.405,198.897 266.653,198.943 266.350 C 198.989 266.048,198.989 265.553,198.943 265.250 C 198.897 264.947,198.860 265.195,198.860 265.800 M198.650 267.700 C 198.653 268.140,198.694 268.296,198.741 268.048 C 198.789 267.799,198.787 267.439,198.737 267.248 C 198.687 267.056,198.648 267.260,198.650 267.700 M198.460 270.600 C 198.460 271.205,198.497 271.453,198.543 271.150 C 198.589 270.848,198.589 270.353,198.543 270.050 C 198.497 269.748,198.460 269.995,198.460 270.600 M187.326 271.018 C 187.257 271.366,187.211 271.886,187.223 272.175 C 187.236 272.464,187.327 272.214,187.426 271.619 C 187.618 270.461,187.537 269.967,187.326 271.018 M187.046 273.400 C 187.046 273.785,187.088 273.943,187.138 273.750 C 187.188 273.558,187.188 273.243,187.138 273.050 C 187.088 272.858,187.046 273.015,187.046 273.400 M198.257 274.300 C 198.259 274.850,198.298 275.051,198.344 274.747 C 198.389 274.443,198.388 273.993,198.341 273.747 C 198.293 273.501,198.256 273.750,198.257 274.300 M178.450 280.349 C 179.303 280.386,180.697 280.386,181.550 280.349 C 182.403 280.311,181.705 280.280,180.000 280.280 C 178.295 280.280,177.597 280.311,178.450 280.349 M174.352 280.541 C 174.601 280.589,174.961 280.587,175.152 280.537 C 175.344 280.487,175.140 280.448,174.700 280.450 C 174.260 280.453,174.104 280.494,174.352 280.541 M184.550 280.541 C 184.798 280.589,185.203 280.589,185.450 280.541 C 185.697 280.493,185.495 280.454,185.000 280.454 C 184.505 280.454,184.303 280.493,184.550 280.541 M198.023 281.438 C 198.010 282.064,198.067 282.618,198.150 282.669 C 198.233 282.720,198.273 282.343,198.240 281.831 C 198.146 280.370,198.049 280.193,198.023 281.438 M162.900 282.707 C 162.400 282.948,162.383 282.976,162.800 282.874 C 163.367 282.735,164.004 282.411,163.700 282.415 C 163.590 282.417,163.230 282.548,162.900 282.707 M215.453 282.944 C 215.757 282.989,216.207 282.988,216.453 282.941 C 216.699 282.893,216.450 282.856,215.900 282.857 C 215.350 282.859,215.149 282.898,215.453 282.944 M219.154 282.945 C 219.513 282.989,220.053 282.989,220.354 282.943 C 220.654 282.897,220.360 282.861,219.700 282.862 C 219.040 282.863,218.794 282.900,219.154 282.945 M222.752 283.141 C 223.001 283.189,223.361 283.187,223.552 283.137 C 223.744 283.087,223.540 283.048,223.100 283.050 C 222.660 283.053,222.504 283.094,222.752 283.141 M159.600 284.000 C 159.215 284.211,158.990 284.383,159.100 284.383 C 159.210 284.383,159.615 284.211,160.000 284.000 C 160.385 283.789,160.610 283.617,160.500 283.617 C 160.390 283.617,159.985 283.789,159.600 284.000 M228.617 283.873 C 228.663 283.914,229.060 284.002,229.500 284.069 C 230.058 284.154,230.179 284.136,229.900 284.009 C 229.516 283.835,228.445 283.722,228.617 283.873 M240.600 287.500 C 240.875 287.657,241.190 287.786,241.300 287.786 C 241.410 287.786,241.275 287.657,241.000 287.500 C 240.725 287.343,240.410 287.214,240.300 287.214 C 240.190 287.214,240.325 287.343,240.600 287.500 M243.000 288.492 C 243.000 288.547,243.360 288.776,243.800 289.000 C 244.240 289.224,244.600 289.363,244.600 289.308 C 244.600 289.253,244.240 289.024,243.800 288.800 C 243.360 288.576,243.000 288.437,243.000 288.492 M147.250 289.938 C 147.442 289.988,147.758 289.988,147.950 289.938 C 148.143 289.888,147.985 289.846,147.600 289.846 C 147.215 289.846,147.058 289.888,147.250 289.938 M257.677 299.859 C 258.101 300.377,258.490 300.800,258.541 300.800 C 258.677 300.800,257.411 299.230,257.139 299.062 C 257.011 298.983,257.253 299.342,257.677 299.859 M122.389 300.550 L 121.700 301.300 122.450 300.611 C 123.148 299.969,123.292 299.800,123.139 299.800 C 123.106 299.800,122.768 300.137,122.389 300.550 M108.193 303.350 L 107.100 304.500 108.250 303.407 C 109.318 302.391,109.492 302.200,109.343 302.200 C 109.312 302.200,108.794 302.718,108.193 303.350 M261.946 302.344 C 262.301 302.389,262.931 302.389,263.346 302.346 C 263.760 302.303,263.470 302.267,262.700 302.266 C 261.930 302.265,261.590 302.300,261.946 302.344 M266.650 302.346 C 267.063 302.389,267.738 302.389,268.150 302.346 C 268.563 302.303,268.225 302.267,267.400 302.267 C 266.575 302.267,266.238 302.303,266.650 302.346 M280.400 304.500 C 281.313 304.852,281.672 304.846,280.900 304.493 C 280.570 304.342,280.165 304.221,280.000 304.224 C 279.835 304.228,280.015 304.352,280.400 304.500 M283.600 305.566 C 283.765 305.668,284.125 305.812,284.400 305.885 C 284.747 305.978,284.808 305.963,284.600 305.834 C 284.435 305.732,284.075 305.588,283.800 305.515 C 283.453 305.422,283.392 305.437,283.600 305.566 M286.217 306.675 C 286.421 306.861,288.000 307.598,288.000 307.508 C 288.000 307.394,286.491 306.600,286.275 306.600 C 286.197 306.600,286.171 306.634,286.217 306.675 M105.067 308.715 C 104.941 308.982,104.913 309.200,105.005 309.200 C 105.179 309.200,105.490 308.424,105.366 308.299 C 105.327 308.261,105.193 308.448,105.067 308.715 M291.000 309.273 C 291.000 309.328,291.270 309.565,291.600 309.800 C 291.930 310.035,292.200 310.182,292.200 310.127 C 292.200 310.072,291.930 309.835,291.600 309.600 C 291.270 309.365,291.000 309.218,291.000 309.273 M292.400 310.252 C 292.400 310.299,292.873 310.731,293.450 311.213 C 294.028 311.695,294.374 311.931,294.219 311.737 C 293.909 311.348,292.400 310.116,292.400 310.252 M99.150 310.914 C 98.402 311.320,98.448 311.489,99.200 311.100 C 99.530 310.929,99.800 310.747,99.800 310.695 C 99.800 310.566,99.779 310.573,99.150 310.914 M96.645 312.750 L 95.663 313.700 96.581 312.919 C 97.869 311.824,97.895 311.800,97.754 311.800 C 97.685 311.800,97.186 312.228,96.645 312.750 M92.100 314.707 C 91.600 314.948,91.583 314.976,92.000 314.874 C 92.567 314.735,93.204 314.411,92.900 314.415 C 92.790 314.417,92.430 314.548,92.100 314.707 M297.600 315.600 C 297.835 315.930,298.072 316.200,298.127 316.200 C 298.182 316.200,298.035 315.930,297.800 315.600 C 297.565 315.270,297.328 315.000,297.273 315.000 C 297.218 315.000,297.365 315.270,297.600 315.600 M89.000 316.000 C 88.615 316.211,88.372 316.387,88.460 316.392 C 88.672 316.403,89.800 315.816,89.800 315.695 C 89.800 315.564,89.788 315.568,89.000 316.000 M82.246 321.150 C 81.729 321.898,81.560 322.200,81.662 322.200 C 81.708 322.200,81.985 321.840,82.276 321.400 C 82.868 320.506,82.842 320.290,82.246 321.150 M300.228 320.800 C 300.228 320.965,300.305 321.280,300.400 321.500 C 300.508 321.752,300.572 321.789,300.572 321.600 C 300.572 321.435,300.495 321.120,300.400 320.900 C 300.292 320.648,300.228 320.611,300.228 320.800 M300.854 324.600 C 300.854 325.095,300.893 325.298,300.941 325.050 C 300.989 324.803,300.989 324.398,300.941 324.150 C 300.893 323.903,300.854 324.105,300.854 324.600 M80.854 325.200 C 80.854 325.695,80.893 325.898,80.941 325.650 C 80.989 325.403,80.989 324.998,80.941 324.750 C 80.893 324.503,80.854 324.705,80.854 325.200 M300.339 327.903 C 300.156 328.286,300.048 328.600,300.098 328.600 C 300.235 328.600,300.842 327.375,300.751 327.284 C 300.707 327.241,300.522 327.519,300.339 327.903 M83.300 329.882 C 83.630 330.166,83.983 330.398,84.083 330.399 C 84.300 330.400,84.298 330.398,83.400 329.819 L 82.700 329.367 83.300 329.882 M298.589 330.350 L 297.900 331.100 298.650 330.411 C 299.063 330.032,299.400 329.694,299.400 329.661 C 299.400 329.508,299.231 329.652,298.589 330.350 M87.200 331.400 C 87.475 331.488,87.925 331.558,88.200 331.556 C 88.649 331.553,88.639 331.537,88.100 331.400 C 87.254 331.185,86.528 331.185,87.200 331.400 M91.850 331.943 C 92.153 331.989,92.648 331.989,92.950 331.943 C 93.252 331.897,93.005 331.860,92.400 331.860 C 91.795 331.860,91.548 331.897,91.850 331.943 M97.200 332.600 C 97.435 332.930,97.672 333.200,97.727 333.200 C 97.782 333.200,97.635 332.930,97.400 332.600 C 97.165 332.270,96.928 332.000,96.873 332.000 C 96.818 332.000,96.965 332.270,97.200 332.600 M293.200 333.900 C 292.705 334.165,292.371 334.386,292.458 334.391 C 292.670 334.403,294.200 333.617,294.200 333.496 C 294.200 333.363,294.208 333.360,293.200 333.900 M99.300 335.000 C 99.953 335.660,100.532 336.200,100.587 336.200 C 100.642 336.200,100.153 335.660,99.500 335.000 C 98.847 334.340,98.268 333.800,98.213 333.800 C 98.158 333.800,98.647 334.340,99.300 335.000 M273.784 334.873 C 274.050 335.201,274.800 335.697,274.800 335.545 C 274.800 335.506,274.507 335.261,274.150 334.999 C 273.748 334.705,273.608 334.657,273.784 334.873 M290.300 335.107 C 289.800 335.348,289.783 335.376,290.200 335.274 C 290.767 335.135,291.404 334.811,291.100 334.815 C 290.990 334.817,290.630 334.948,290.300 335.107 M283.352 336.741 C 283.601 336.789,283.961 336.787,284.152 336.737 C 284.344 336.687,284.140 336.648,283.700 336.650 C 283.260 336.653,283.104 336.694,283.352 336.741 M247.500 336.942 C 247.720 336.994,248.260 337.367,248.700 337.769 L 249.500 338.500 248.709 337.650 C 248.238 337.144,247.753 336.809,247.509 336.823 C 247.108 336.846,247.108 336.848,247.500 336.942 M280.450 336.943 C 280.752 336.989,281.248 336.989,281.550 336.943 C 281.853 336.897,281.605 336.860,281.000 336.860 C 280.395 336.860,280.147 336.897,280.450 336.943 M244.500 337.907 C 244.000 338.148,243.983 338.176,244.400 338.074 C 244.967 337.935,245.604 337.611,245.300 337.615 C 245.190 337.617,244.830 337.748,244.500 337.907 M104.600 338.982 C 104.875 339.207,105.190 339.392,105.300 339.392 C 105.514 339.394,105.152 339.117,104.500 338.780 C 104.234 338.643,104.268 338.710,104.600 338.982 M250.000 338.698 C 250.000 338.835,251.225 339.442,251.316 339.351 C 251.359 339.307,251.081 339.122,250.697 338.939 C 250.314 338.756,250.000 338.648,250.000 338.698 M240.300 339.200 C 240.048 339.308,240.011 339.372,240.200 339.372 C 240.365 339.372,240.680 339.295,240.900 339.200 C 241.152 339.092,241.189 339.028,241.000 339.028 C 240.835 339.028,240.520 339.105,240.300 339.200 M235.800 340.400 C 235.398 340.529,235.378 340.561,235.700 340.566 C 235.920 340.569,236.280 340.495,236.500 340.400 C 237.010 340.181,236.484 340.181,235.800 340.400 M256.241 340.348 C 256.979 340.386,258.239 340.387,259.041 340.349 C 259.844 340.311,259.240 340.279,257.700 340.279 C 256.160 340.279,255.504 340.310,256.241 340.348 M110.200 341.566 C 110.365 341.668,110.725 341.812,111.000 341.885 C 111.347 341.978,111.408 341.963,111.200 341.834 C 111.035 341.732,110.675 341.588,110.400 341.515 C 110.053 341.422,109.992 341.437,110.200 341.566 M163.200 341.790 C 163.200 341.931,162.863 342.365,162.450 342.755 C 161.736 343.429,161.731 343.442,162.350 343.018 C 163.023 342.557,163.520 341.853,163.316 341.650 C 163.252 341.586,163.200 341.649,163.200 341.790 M114.100 342.800 C 114.320 342.895,114.635 342.972,114.800 342.972 C 114.989 342.972,114.952 342.908,114.700 342.800 C 114.480 342.705,114.165 342.628,114.000 342.628 C 113.811 342.628,113.848 342.692,114.100 342.800 M223.200 342.800 C 222.525 342.942,222.522 342.947,223.100 342.950 C 223.430 342.951,223.970 342.884,224.300 342.800 C 225.130 342.589,224.203 342.589,223.200 342.800 M174.250 342.938 C 174.442 342.988,174.758 342.988,174.950 342.938 C 175.143 342.888,174.985 342.846,174.600 342.846 C 174.215 342.846,174.058 342.888,174.250 342.938 M175.650 343.138 C 175.843 343.188,176.158 343.188,176.350 343.138 C 176.543 343.088,176.385 343.046,176.000 343.046 C 175.615 343.046,175.458 343.088,175.650 343.138 M183.352 343.941 C 183.601 343.989,183.961 343.987,184.152 343.937 C 184.344 343.887,184.140 343.848,183.700 343.850 C 183.260 343.853,183.104 343.894,183.352 343.941 M213.552 343.941 C 213.801 343.989,214.161 343.987,214.352 343.937 C 214.544 343.887,214.340 343.848,213.900 343.850 C 213.460 343.853,213.304 343.894,213.552 343.941 M120.952 344.141 C 121.201 344.189,121.561 344.187,121.752 344.137 C 121.944 344.087,121.740 344.048,121.300 344.050 C 120.860 344.053,120.704 344.094,120.952 344.141 M132.400 344.319 L 129.900 344.574 132.200 344.466 C 134.491 344.359,137.130 344.042,135.600 344.057 C 135.215 344.061,133.775 344.179,132.400 344.319 M136.400 344.063 C 136.400 344.112,136.730 344.405,137.134 344.713 C 137.538 345.021,137.805 345.170,137.728 345.046 C 137.570 344.790,136.400 343.924,136.400 344.063 M185.650 344.143 C 185.953 344.189,186.447 344.189,186.750 344.143 C 187.053 344.097,186.805 344.060,186.200 344.060 C 185.595 344.060,185.347 344.097,185.650 344.143 M210.850 344.143 C 211.153 344.189,211.648 344.189,211.950 344.143 C 212.253 344.097,212.005 344.060,211.400 344.060 C 210.795 344.060,210.548 344.097,210.850 344.143 M122.650 344.343 C 122.953 344.389,123.447 344.389,123.750 344.343 C 124.053 344.297,123.805 344.260,123.200 344.260 C 122.595 344.260,122.347 344.297,122.650 344.343 M188.850 344.347 C 189.373 344.388,190.228 344.388,190.750 344.347 C 191.273 344.306,190.845 344.272,189.800 344.272 C 188.755 344.272,188.328 344.306,188.850 344.347 M203.900 344.400 L 201.500 344.520 203.600 344.535 C 204.755 344.544,206.645 344.487,207.800 344.409 L 209.900 344.267 208.100 344.274 C 207.110 344.277,205.220 344.334,203.900 344.400 M125.150 344.545 C 125.508 344.589,126.093 344.589,126.450 344.545 C 126.808 344.500,126.515 344.464,125.800 344.464 C 125.085 344.464,124.793 344.500,125.150 344.545 M192.850 344.548 C 193.483 344.587,194.518 344.587,195.150 344.548 C 195.783 344.508,195.265 344.476,194.000 344.476 C 192.735 344.476,192.218 344.508,192.850 344.548 M138.000 345.326 C 138.000 345.462,139.427 346.039,139.524 345.943 C 139.568 345.899,139.243 345.721,138.802 345.547 C 138.361 345.374,138.000 345.275,138.000 345.326 M153.800 345.400 C 153.122 345.543,153.119 345.548,153.700 345.554 C 154.030 345.557,154.525 345.488,154.800 345.400 C 155.456 345.190,154.798 345.190,153.800 345.400 M147.050 346.338 C 147.243 346.388,147.558 346.388,147.750 346.338 C 147.942 346.288,147.785 346.246,147.400 346.246 C 147.015 346.246,146.858 346.288,147.050 346.338 " stroke="none" fill="#c8db9c" fill-rule="evenodd"></path><path id="path4" d="M304.589 69.150 L 303.900 69.900 304.650 69.211 C 305.063 68.832,305.400 68.494,305.400 68.461 C 305.400 68.308,305.231 68.452,304.589 69.150 M291.950 78.514 C 291.202 78.920,291.248 79.089,292.000 78.700 C 292.330 78.529,292.600 78.347,292.600 78.295 C 292.600 78.166,292.579 78.173,291.950 78.514 M325.628 78.400 C 325.628 78.565,325.705 78.880,325.800 79.100 C 325.908 79.352,325.972 79.389,325.972 79.200 C 325.972 79.035,325.895 78.720,325.800 78.500 C 325.692 78.248,325.628 78.211,325.628 78.400 M286.600 81.100 C 286.325 81.257,286.190 81.386,286.300 81.386 C 286.410 81.386,286.725 81.257,287.000 81.100 C 287.275 80.943,287.410 80.814,287.300 80.814 C 287.190 80.814,286.875 80.943,286.600 81.100 M250.600 95.300 C 250.325 95.457,250.190 95.586,250.300 95.586 C 250.410 95.586,250.725 95.457,251.000 95.300 C 251.275 95.143,251.410 95.014,251.300 95.014 C 251.190 95.014,250.875 95.143,250.600 95.300 M247.950 96.514 C 247.202 96.920,247.248 97.089,248.000 96.700 C 248.330 96.529,248.600 96.347,248.600 96.295 C 248.600 96.166,248.579 96.173,247.950 96.514 M329.254 101.000 C 329.254 101.495,329.293 101.698,329.341 101.450 C 329.389 101.203,329.389 100.798,329.341 100.550 C 329.293 100.303,329.254 100.505,329.254 101.000 M329.254 108.000 C 329.254 108.495,329.293 108.697,329.341 108.450 C 329.389 108.203,329.389 107.797,329.341 107.550 C 329.293 107.303,329.254 107.505,329.254 108.000 M258.500 155.094 C 258.060 155.239,257.863 155.367,258.062 155.379 C 258.282 155.392,258.368 155.491,258.281 155.631 C 258.192 155.775,258.226 155.807,258.372 155.717 C 258.501 155.637,258.545 155.473,258.470 155.352 C 258.387 155.217,258.447 155.175,258.626 155.244 C 258.786 155.305,259.088 155.231,259.297 155.078 C 259.756 154.742,259.558 154.746,258.500 155.094 M124.840 155.549 C 125.797 155.585,127.417 155.586,128.440 155.549 C 129.463 155.513,128.680 155.483,126.700 155.483 C 124.720 155.482,123.883 155.512,124.840 155.549 M120.554 155.745 C 120.913 155.789,121.453 155.789,121.754 155.743 C 122.054 155.697,121.760 155.661,121.100 155.662 C 120.440 155.663,120.194 155.700,120.554 155.745 M132.053 155.744 C 132.357 155.789,132.807 155.788,133.053 155.741 C 133.299 155.693,133.050 155.656,132.500 155.657 C 131.950 155.659,131.749 155.698,132.053 155.744 M205.654 162.200 C 205.654 162.695,205.693 162.898,205.741 162.650 C 205.789 162.403,205.789 161.998,205.741 161.750 C 205.693 161.503,205.654 161.705,205.654 162.200 M249.789 162.350 L 249.100 163.100 249.850 162.411 C 250.548 161.769,250.692 161.600,250.539 161.600 C 250.506 161.600,250.168 161.938,249.789 162.350 M205.473 165.300 C 205.474 166.400,205.507 166.824,205.548 166.243 C 205.588 165.662,205.588 164.762,205.547 164.243 C 205.506 163.724,205.473 164.200,205.473 165.300 M88.900 167.318 L 88.300 167.833 88.950 167.403 C 89.308 167.166,89.600 166.934,89.600 166.886 C 89.600 166.737,89.515 166.789,88.900 167.318 M242.189 168.950 L 241.500 169.700 242.250 169.011 C 242.948 168.369,243.092 168.200,242.939 168.200 C 242.906 168.200,242.568 168.538,242.189 168.950 M238.695 172.250 L 237.100 173.900 238.750 172.305 C 240.282 170.823,240.491 170.600,240.345 170.600 C 240.315 170.600,239.573 171.343,238.695 172.250 M82.687 172.250 L 82.100 172.900 82.750 172.313 C 83.356 171.765,83.492 171.600,83.337 171.600 C 83.303 171.600,83.010 171.893,82.687 172.250 M178.300 174.600 C 179.285 175.590,180.137 176.400,180.192 176.400 C 180.247 176.400,179.485 175.590,178.500 174.600 C 177.515 173.610,176.663 172.800,176.608 172.800 C 176.553 172.800,177.315 173.610,178.300 174.600 M80.691 174.050 L 79.900 174.900 80.750 174.109 C 81.540 173.374,81.692 173.200,81.541 173.200 C 81.508 173.200,81.125 173.583,80.691 174.050 M205.473 176.700 C 205.474 177.800,205.507 178.224,205.548 177.643 C 205.588 177.062,205.588 176.162,205.547 175.643 C 205.506 175.124,205.473 175.600,205.473 176.700 M233.095 177.850 L 231.700 179.300 233.150 177.905 C 234.497 176.610,234.691 176.400,234.545 176.400 C 234.514 176.400,233.862 177.053,233.095 177.850 M78.850 177.538 C 79.043 177.588,79.358 177.588,79.550 177.538 C 79.743 177.488,79.585 177.446,79.200 177.446 C 78.815 177.446,78.658 177.488,78.850 177.538 M84.217 178.272 C 84.263 178.311,84.570 178.404,84.900 178.478 C 85.338 178.576,85.419 178.557,85.200 178.409 C 84.930 178.226,84.016 178.099,84.217 178.272 M205.657 179.700 C 205.659 180.250,205.698 180.451,205.744 180.147 C 205.789 179.843,205.788 179.393,205.741 179.147 C 205.693 178.901,205.656 179.150,205.657 179.700 M298.287 180.850 L 297.700 181.500 298.350 180.913 C 298.956 180.365,299.092 180.200,298.937 180.200 C 298.903 180.200,298.610 180.493,298.287 180.850 M295.695 183.650 L 294.300 185.100 295.750 183.705 C 297.097 182.410,297.291 182.200,297.145 182.200 C 297.114 182.200,296.462 182.853,295.695 183.650 M227.087 184.450 L 226.500 185.100 227.150 184.513 C 227.756 183.965,227.892 183.800,227.737 183.800 C 227.703 183.800,227.410 184.093,227.087 184.450 M96.000 184.263 C 96.000 184.297,96.293 184.590,96.650 184.913 L 97.300 185.500 96.713 184.850 C 96.165 184.244,96.000 184.108,96.000 184.263 M98.500 186.800 C 99.042 187.350,99.530 187.800,99.585 187.800 C 99.640 187.800,99.242 187.350,98.700 186.800 C 98.158 186.250,97.670 185.800,97.615 185.800 C 97.560 185.800,97.958 186.250,98.500 186.800 M291.892 187.450 L 290.900 188.500 291.950 187.508 C 292.528 186.962,293.000 186.489,293.000 186.458 C 293.000 186.308,292.815 186.474,291.892 187.450 M188.014 188.900 C 188.014 189.010,188.143 189.325,188.300 189.600 C 188.457 189.875,188.586 190.010,188.586 189.900 C 188.586 189.790,188.457 189.475,188.300 189.200 C 188.143 188.925,188.014 188.790,188.014 188.900 M189.428 192.800 C 189.428 192.965,189.505 193.280,189.600 193.500 C 189.708 193.752,189.772 193.789,189.772 193.600 C 189.772 193.435,189.695 193.120,189.600 192.900 C 189.492 192.648,189.428 192.611,189.428 192.800 M161.081 194.448 C 161.290 194.587,161.756 194.951,162.115 195.257 C 162.575 195.648,162.812 195.743,162.915 195.576 C 163.002 195.435,162.977 195.391,162.852 195.468 C 162.736 195.539,162.592 195.467,162.531 195.308 C 162.470 195.148,162.033 194.833,161.560 194.607 C 161.087 194.381,160.871 194.309,161.081 194.448 M160.769 195.102 C 160.993 195.568,161.800 196.344,161.800 196.094 C 161.800 196.001,162.093 196.190,162.450 196.513 L 163.100 197.100 162.522 196.459 C 162.204 196.107,161.882 195.837,161.808 195.859 C 161.733 195.882,161.425 195.630,161.124 195.300 C 160.780 194.924,160.648 194.850,160.769 195.102 M163.948 196.218 C 164.085 196.394,164.150 196.583,164.093 196.640 C 164.037 196.697,164.150 196.868,164.345 197.021 C 164.660 197.269,164.672 197.264,164.452 196.982 C 164.315 196.806,164.250 196.617,164.307 196.560 C 164.363 196.503,164.250 196.332,164.055 196.179 C 163.740 195.931,163.728 195.936,163.948 196.218 M166.600 200.500 C 167.972 201.875,169.139 203.000,169.194 203.000 C 169.249 203.000,168.172 201.875,166.800 200.500 C 165.428 199.125,164.261 198.000,164.206 198.000 C 164.151 198.000,165.228 199.125,166.600 200.500 M190.854 200.000 C 190.854 200.495,190.893 200.697,190.941 200.450 C 190.989 200.203,190.989 199.798,190.941 199.550 C 190.893 199.303,190.854 199.505,190.854 200.000 M167.800 199.863 C 167.800 199.897,168.093 200.190,168.450 200.513 L 169.100 201.100 168.513 200.450 C 167.965 199.844,167.800 199.708,167.800 199.863 M271.200 201.500 C 270.925 201.657,270.790 201.786,270.900 201.786 C 271.010 201.786,271.325 201.657,271.600 201.500 C 271.875 201.343,272.010 201.214,271.900 201.214 C 271.790 201.214,271.475 201.343,271.200 201.500 M170.800 202.700 C 171.509 203.415,172.133 204.000,172.188 204.000 C 172.243 204.000,171.709 203.415,171.000 202.700 C 170.291 201.985,169.667 201.400,169.612 201.400 C 169.557 201.400,170.091 201.985,170.800 202.700 M191.076 203.900 C 191.077 205.220,191.109 205.734,191.148 205.042 C 191.187 204.350,191.187 203.270,191.148 202.642 C 191.108 202.014,191.076 202.580,191.076 203.900 M170.000 204.063 C 170.000 204.097,170.293 204.390,170.650 204.713 L 171.300 205.300 170.713 204.650 C 170.165 204.044,170.000 203.908,170.000 204.063 M172.400 204.255 C 172.400 204.285,173.097 204.983,173.950 205.805 L 175.500 207.300 174.005 205.750 C 172.616 204.310,172.400 204.109,172.400 204.255 M242.352 206.741 C 242.601 206.789,242.961 206.787,243.152 206.737 C 243.344 206.687,243.140 206.648,242.700 206.650 C 242.260 206.653,242.104 206.694,242.352 206.741 M252.050 206.738 C 252.243 206.788,252.558 206.788,252.750 206.738 C 252.943 206.688,252.785 206.646,252.400 206.646 C 252.015 206.646,251.857 206.688,252.050 206.738 M190.854 207.600 C 190.854 208.095,190.893 208.298,190.941 208.050 C 190.989 207.803,190.989 207.398,190.941 207.150 C 190.893 206.903,190.854 207.105,190.854 207.600 M246.050 206.948 C 246.793 206.987,248.007 206.987,248.750 206.948 C 249.493 206.910,248.885 206.878,247.400 206.878 C 245.915 206.878,245.308 206.910,246.050 206.948 M176.600 208.700 C 176.973 209.085,177.323 209.400,177.378 209.400 C 177.433 209.400,177.173 209.085,176.800 208.700 C 176.427 208.315,176.077 208.000,176.022 208.000 C 175.967 208.000,176.227 208.315,176.600 208.700 M119.000 213.263 C 119.000 213.297,119.293 213.590,119.650 213.913 L 120.300 214.500 119.713 213.850 C 119.165 213.244,119.000 213.108,119.000 213.263 M122.700 217.200 C 123.575 218.080,124.336 218.800,124.391 218.800 C 124.446 218.800,123.775 218.080,122.900 217.200 C 122.025 216.320,121.264 215.600,121.209 215.600 C 121.154 215.600,121.825 216.320,122.700 217.200 M125.200 219.500 C 125.573 219.885,125.923 220.200,125.978 220.200 C 126.033 220.200,125.773 219.885,125.400 219.500 C 125.027 219.115,124.677 218.800,124.622 218.800 C 124.567 218.800,124.827 219.115,125.200 219.500 M184.614 226.100 C 184.614 226.210,184.743 226.525,184.900 226.800 C 185.057 227.075,185.186 227.210,185.186 227.100 C 185.186 226.990,185.057 226.675,184.900 226.400 C 184.743 226.125,184.614 225.990,184.614 226.100 M157.050 230.738 C 157.243 230.788,157.558 230.788,157.750 230.738 C 157.942 230.688,157.785 230.646,157.400 230.646 C 157.015 230.646,156.858 230.688,157.050 230.738 M206.234 231.190 C 206.117 231.525,206.063 231.800,206.115 231.800 C 206.250 231.800,206.628 230.761,206.529 230.662 C 206.483 230.617,206.351 230.854,206.234 231.190 M188.628 236.600 C 188.628 236.765,188.705 237.080,188.800 237.300 C 188.908 237.552,188.972 237.589,188.972 237.400 C 188.972 237.235,188.895 236.920,188.800 236.700 C 188.692 236.448,188.628 236.411,188.628 236.600 M195.247 239.000 C 195.115 239.210,195.086 239.430,195.181 239.488 C 195.277 239.547,195.406 239.398,195.469 239.156 C 195.620 238.582,195.542 238.527,195.247 239.000 M203.714 239.514 C 203.641 239.807,203.619 240.086,203.666 240.133 C 203.713 240.180,203.812 239.979,203.886 239.686 C 203.959 239.393,203.981 239.114,203.934 239.067 C 203.887 239.020,203.788 239.221,203.714 239.514 M202.325 245.025 C 202.158 245.859,202.320 246.020,202.500 245.200 C 202.576 244.854,202.596 244.530,202.545 244.479 C 202.494 244.428,202.395 244.674,202.325 245.025 M191.246 248.600 C 191.246 248.985,191.288 249.143,191.338 248.950 C 191.388 248.757,191.388 248.443,191.338 248.250 C 191.288 248.058,191.246 248.215,191.246 248.600 M198.662 269.500 C 198.663 270.160,198.700 270.406,198.745 270.046 C 198.789 269.687,198.789 269.147,198.743 268.846 C 198.697 268.546,198.661 268.840,198.662 269.500 M198.460 272.600 C 198.460 273.205,198.497 273.453,198.543 273.150 C 198.589 272.848,198.589 272.353,198.543 272.050 C 198.497 271.748,198.460 271.995,198.460 272.600 M198.260 276.200 C 198.260 276.805,198.297 277.053,198.343 276.750 C 198.389 276.447,198.389 275.953,198.343 275.650 C 198.297 275.348,198.260 275.595,198.260 276.200 M186.250 279.100 C 186.253 279.540,186.294 279.696,186.341 279.448 C 186.389 279.199,186.387 278.839,186.337 278.648 C 186.287 278.456,186.248 278.660,186.250 279.100 M179.250 280.143 C 179.553 280.189,180.048 280.189,180.350 280.143 C 180.653 280.097,180.405 280.060,179.800 280.060 C 179.195 280.060,178.947 280.097,179.250 280.143 M175.354 280.345 C 175.713 280.389,176.253 280.389,176.554 280.343 C 176.854 280.297,176.560 280.261,175.900 280.262 C 175.240 280.263,174.994 280.300,175.354 280.345 M183.554 280.345 C 183.913 280.389,184.453 280.389,184.754 280.343 C 185.054 280.297,184.760 280.261,184.100 280.262 C 183.440 280.263,183.194 280.300,183.554 280.345 M216.946 282.744 C 217.301 282.789,217.931 282.789,218.346 282.746 C 218.760 282.703,218.470 282.667,217.700 282.666 C 216.930 282.665,216.590 282.700,216.946 282.744 M213.150 282.945 C 213.507 282.989,214.093 282.989,214.450 282.945 C 214.808 282.900,214.515 282.864,213.800 282.864 C 213.085 282.864,212.793 282.900,213.150 282.945 M221.354 282.945 C 221.713 282.989,222.253 282.989,222.554 282.943 C 222.854 282.897,222.560 282.861,221.900 282.862 C 221.240 282.863,220.994 282.900,221.354 282.945 M153.487 288.050 L 152.900 288.700 153.550 288.113 C 153.908 287.790,154.200 287.497,154.200 287.463 C 154.200 287.308,154.035 287.444,153.487 288.050 M150.650 289.738 C 150.843 289.788,151.157 289.788,151.350 289.738 C 151.542 289.688,151.385 289.646,151.000 289.646 C 150.615 289.646,150.458 289.688,150.650 289.738 M254.200 296.100 C 254.573 296.485,254.923 296.800,254.978 296.800 C 255.033 296.800,254.773 296.485,254.400 296.100 C 254.027 295.715,253.677 295.400,253.622 295.400 C 253.567 295.400,253.827 295.715,254.200 296.100 M256.600 298.500 C 256.973 298.885,257.323 299.200,257.378 299.200 C 257.433 299.200,257.173 298.885,256.800 298.500 C 256.427 298.115,256.077 297.800,256.022 297.800 C 255.967 297.800,256.227 298.115,256.600 298.500 M115.853 299.944 C 116.157 299.989,116.607 299.988,116.853 299.941 C 117.099 299.893,116.850 299.856,116.300 299.857 C 115.750 299.859,115.549 299.898,115.853 299.944 M121.000 300.900 C 121.275 301.057,121.590 301.186,121.700 301.186 C 121.810 301.186,121.675 301.057,121.400 300.900 C 121.125 300.743,120.810 300.614,120.700 300.614 C 120.590 300.614,120.725 300.743,121.000 300.900 M263.441 302.148 C 264.179 302.186,265.439 302.187,266.241 302.149 C 267.044 302.111,266.440 302.079,264.900 302.079 C 263.360 302.079,262.704 302.110,263.441 302.148 M260.053 302.344 C 260.357 302.389,260.807 302.388,261.053 302.341 C 261.299 302.293,261.050 302.256,260.500 302.257 C 259.950 302.259,259.749 302.298,260.053 302.344 M269.152 302.341 C 269.401 302.389,269.761 302.387,269.952 302.337 C 270.144 302.287,269.940 302.248,269.500 302.250 C 269.060 302.253,268.904 302.294,269.152 302.341 M295.300 312.800 C 296.064 313.570,296.734 314.200,296.789 314.200 C 296.844 314.200,296.264 313.570,295.500 312.800 C 294.736 312.030,294.066 311.400,294.011 311.400 C 293.956 311.400,294.536 312.030,295.300 312.800 M95.981 313.122 C 95.834 313.300,95.531 313.519,95.307 313.610 C 95.020 313.726,94.993 313.778,95.215 313.787 C 95.388 313.794,95.742 313.575,96.000 313.300 C 96.258 313.025,96.420 312.800,96.359 312.800 C 96.299 312.800,96.129 312.945,95.981 313.122 M95.550 332.141 C 95.798 332.189,96.203 332.189,96.450 332.141 C 96.698 332.093,96.495 332.054,96.000 332.054 C 95.505 332.054,95.303 332.093,95.550 332.141 M99.192 335.050 C 99.682 335.572,100.110 336.000,100.142 336.000 C 100.292 336.000,100.133 335.820,99.250 334.992 L 98.300 334.100 99.192 335.050 M247.800 337.063 C 247.800 337.097,248.093 337.390,248.450 337.713 L 249.100 338.300 248.513 337.650 C 247.965 337.044,247.800 336.908,247.800 337.063 M256.750 340.546 C 257.218 340.589,257.983 340.589,258.450 340.546 C 258.918 340.504,258.535 340.470,257.600 340.470 C 256.665 340.470,256.282 340.504,256.750 340.546 M182.050 343.938 C 182.243 343.988,182.558 343.988,182.750 343.938 C 182.942 343.888,182.785 343.846,182.400 343.846 C 182.015 343.846,181.858 343.888,182.050 343.938 M214.952 343.941 C 215.201 343.989,215.561 343.987,215.752 343.937 C 215.944 343.887,215.740 343.848,215.300 343.850 C 214.860 343.853,214.704 343.894,214.952 343.941 M183.950 344.141 C 184.197 344.189,184.603 344.189,184.850 344.141 C 185.097 344.093,184.895 344.054,184.400 344.054 C 183.905 344.054,183.703 344.093,183.950 344.141 M212.750 344.141 C 212.998 344.189,213.403 344.189,213.650 344.141 C 213.898 344.093,213.695 344.054,213.200 344.054 C 212.705 344.054,212.503 344.093,212.750 344.141 M186.750 344.341 C 186.998 344.389,187.403 344.389,187.650 344.341 C 187.898 344.293,187.695 344.254,187.200 344.254 C 186.705 344.254,186.503 344.293,186.750 344.341 M210.150 344.341 C 210.398 344.389,210.803 344.389,211.050 344.341 C 211.298 344.293,211.095 344.254,210.600 344.254 C 210.105 344.254,209.903 344.293,210.150 344.341 M190.752 344.541 C 191.001 344.589,191.361 344.587,191.552 344.537 C 191.744 344.487,191.540 344.448,191.100 344.450 C 190.660 344.453,190.504 344.494,190.752 344.541 M206.450 344.538 C 206.643 344.588,206.957 344.588,207.150 344.538 C 207.343 344.488,207.185 344.446,206.800 344.446 C 206.415 344.446,206.257 344.488,206.450 344.538 M142.850 346.549 C 143.703 346.586,145.097 346.586,145.950 346.549 C 146.803 346.511,146.105 346.480,144.400 346.480 C 142.695 346.480,141.998 346.511,142.850 346.549 " stroke="none" fill="#e1edc9" fill-rule="evenodd"></path></g></svg>